<svg xmlns:xlink="http://www.w3.org/1999/xlink" xmlns="http://www.w3.org/2000/svg" width="52" height="52" viewBox="0 0 52 52" fill="none">
<circle cx="26" cy="26" r="26" fill="url(#paint0_linear_3910_2511)"/>
<g clip-path="url(#clip0_3910_2511)">
<path d="M25.9999 1.44434C21.1433 1.44434 16.3957 2.88449 12.3576 5.58269C8.31943 8.28089 5.17208 12.1159 3.31353 16.6029C1.45498 21.0898 0.968694 26.0271 1.91618 30.7904C2.86366 35.5538 5.20235 39.9291 8.6365 43.3633C12.0707 46.7974 16.446 49.1361 21.2094 50.0836C25.9727 51.0311 30.91 50.5448 35.3969 48.6863C39.8839 46.8277 43.7189 43.6804 46.4171 39.6422C49.1153 35.6041 50.5555 30.8565 50.5555 25.9999C50.5555 19.4874 47.9684 13.2416 43.3633 8.63649C38.7582 4.03143 32.5124 1.44434 25.9999 1.44434ZM41.8628 40.709C39.4456 38.2534 36.2851 36.6649 32.8722 36.1903C32.4157 36.1283 31.9976 35.9014 31.6967 35.5525C31.3958 35.2037 31.2329 34.7568 31.2385 34.2961V31.5627C31.2488 31.112 31.4192 30.6796 31.7194 30.3431C33.8122 27.804 34.9744 24.626 35.0134 21.3358C35.0134 14.5172 31.3903 10.7057 25.9326 10.7057C20.4748 10.7057 16.7488 14.6587 16.7488 21.3358C16.8416 24.6428 18.0553 27.8201 20.1909 30.3468C20.4915 30.6829 20.6621 31.1153 20.6721 31.5661V34.2864C20.6796 34.7496 20.5156 35.1992 20.2115 35.5487C19.9075 35.8982 19.485 36.123 19.0253 36.1798C15.6217 36.619 12.4559 38.162 10.013 40.5723C7.17137 37.4651 5.29676 33.5971 4.61839 29.4415C3.94002 25.2858 4.4873 21.0225 6.1933 17.1729C7.8993 13.3233 10.6901 10.0543 14.2244 7.7655C17.7587 5.47674 21.8834 4.26746 26.094 4.28553C30.3046 4.30359 34.4188 5.54823 37.9333 7.86724C41.4478 10.1863 44.2105 13.4791 45.8834 17.3432C47.5563 21.2073 48.0669 25.4751 47.3529 29.6248C46.6389 33.7745 44.7312 37.6262 41.863 40.709H41.8628Z" fill="white"/>
</g>
<defs>
<linearGradient id="paint0_linear_3910_2511" x1="-75.3567" y1="-482.3" x2="-271.894" y2="-335.242" gradientUnits="userSpaceOnUse">
<stop stop-color="#8EC850"/>
<stop offset="0.265625" stop-color="#428DCB"/>
<stop offset="0.520833" stop-color="#2AB998"/>
<stop offset="0.755208" stop-color="#C2579B"/>
<stop offset="1" stop-color="#EC7026"/>
</linearGradient>
<clipPath id="clip0_3910_2511">
<rect width="52" height="52" fill="white"/>
</clipPath>
</defs>
</svg>